{"glyphs":{"0":{"ha":1068,"x_min":0,"x_max":0,"o":"m 383 799 b 242 657 306 799 242 735 l 242 314 b 383 172 242 236 306 172 l 683 172 b 825 314 761 172 825 236 l 825 657 b 683 799 825 735 761 799 m 683 972 b 997 658 857 972 997 832 l 997 315 b 683 1 997 142 857 1 l 383 1 b 69 315 210 1 69 142 l 69 658 b 383 972 69 832 210 972 "},"1":{"ha":469,"x_min":0,"x_max":0,"o":"m 403 649 b 403 649 403 649 403 649 l 403 -12 l 229 -12 l 229 667 b 111 785 221 728 172 776 b 94 785 106 785 100 785 l 72 785 l 72 957 l 93 957 l 93 957 b 93 957 93 957 93 957 l 110 957 l 110 956 b 228 924 151 953 192 942 l 228 924 b 368 782 289 893 339 843 b 392 717 378 761 386 739 b 400 646 397 694 400 671 "},"2":{"ha":1111,"x_min":0,"x_max":0,"o":"m 1038 171 l 1038 -3 l 353 -3 b 353 -3 353 -3 353 -3 l 68 -3 l 68 283 b 92 396 68 324 76 361 b 344 571 133 496 231 567 l 761 571 l 765 571 b 868 683 824 576 868 625 b 756 797 868 746 818 797 l 71 797 l 71 971 l 756 971 b 1042 685 914 971 1042 843 b 1018 572 1042 644 1033 607 b 960 486 1004 540 985 511 b 764 399 910 435 840 401 l 760 399 b 756 399 758 399 757 399 l 344 399 b 243 286 288 393 243 344 l 243 174 "},"3":{"ha":1111,"x_min":0,"x_max":0,"o":"m 1040 678 b 960 478 1040 600 1010 529 b 1040 278 1010 426 1040 356 b 754 -8 1040 119 913 -8 l 69 -8 l 69 165 l 754 165 b 868 279 817 165 868 217 b 761 393 868 340 821 390 b 757 393 760 393 758 393 l 244 393 l 244 567 l 757 567 b 761 567 758 567 760 567 b 869 681 821 569 869 619 b 756 794 869 743 818 794 l 71 794 l 71 968 l 756 968 b 1042 682 914 968 1042 840 "},"4":{"ha":1111,"x_min":0,"x_max":0,"o":"m 1040 972 l 1040 0 l 867 0 l 867 400 l 354 400 b 224 432 307 400 263 411 b 68 686 131 479 68 575 l 68 972 l 242 972 l 242 686 b 356 572 242 624 293 572 l 868 572 l 868 972 "},"5":{"ha":1111,"x_min":0,"x_max":0,"o":"m 1017 394 b 1040 282 1032 360 1040 322 b 754 -4 1040 124 913 -4 l 69 -4 l 69 169 l 754 169 b 867 283 817 169 867 221 b 767 396 867 342 824 390 l 69 396 l 69 968 l 960 968 l 960 794 l 243 794 l 243 569 l 756 569 b 765 569 758 569 761 569 b 1018 396 879 567 976 496 "},"6":{"ha":1111,"x_min":0,"x_max":0,"o":"m 958 490 b 1039 290 1008 439 1039 368 b 753 4 1039 132 911 4 l 354 4 b 90 179 235 4 133 76 b 68 292 76 214 68 251 l 68 690 b 140 878 68 763 96 828 b 224 943 164 904 192 926 b 354 975 263 964 307 975 l 958 975 l 958 801 l 354 801 b 240 688 292 801 240 750 l 240 551 b 349 574 274 565 311 574 l 350 574 b 354 574 351 574 353 574 l 753 574 b 757 574 754 574 756 574 l 758 574 b 960 486 838 572 908 539 b 960 486 960 486 960 486 b 960 486 960 486 960 486 m 751 178 b 865 292 814 178 865 229 b 758 406 865 353 818 403 l 757 406 b 753 406 756 406 754 406 l 354 406 b 350 406 353 406 351 406 l 349 406 b 240 292 289 403 240 353 b 354 178 240 229 292 178 l 753 178 "},"7":{"ha":940,"x_min":0,"x_max":0,"o":"m 839 800 b 871 664 860 758 871 713 l 871 1 l 697 1 l 697 681 b 579 799 689 742 640 790 l 69 799 l 69 972 l 563 972 b 699 940 611 972 657 961 b 839 799 760 910 810 860 "},"8":{"ha":1111,"x_min":0,"x_max":0,"o":"m 963 485 b 963 485 963 485 963 485 b 1043 285 1013 433 1043 363 b 757 -1 1043 126 915 -1 l 358 -1 b 94 174 239 -1 138 71 b 72 286 81 208 72 246 b 153 486 72 364 103 435 b 153 486 153 486 153 486 b 93 574 128 511 107 540 b 71 686 79 608 71 646 b 151 886 71 764 101 835 b 243 951 178 914 208 936 b 351 974 276 965 314 974 b 356 974 353 974 354 974 l 754 974 b 758 974 756 974 757 974 b 960 886 838 972 908 939 b 1040 686 1010 835 1040 764 b 960 486 1040 608 1010 538 m 751 171 b 865 285 814 171 865 222 b 758 399 865 346 818 396 b 754 399 757 399 756 399 l 356 399 b 351 399 354 399 353 399 b 244 286 292 396 244 346 b 358 172 244 224 296 172 l 757 172 m 750 569 b 861 682 811 571 861 621 b 754 796 861 743 814 793 l 344 796 b 236 682 285 793 236 743 b 347 569 236 621 286 571 b 351 569 349 569 350 569 l 750 569 b 754 569 751 569 753 569 "},"9":{"ha":1111,"x_min":0,"x_max":0,"o":"m 1019 797 b 1042 685 1033 763 1042 725 l 1042 286 b 950 75 1042 203 1007 128 b 886 29 931 57 910 42 b 756 -3 847 8 803 -3 l 151 -3 l 151 171 l 756 171 b 869 285 818 171 869 222 l 869 421 b 761 399 836 407 799 399 l 760 399 b 756 399 758 399 757 399 l 357 399 b 353 399 356 399 354 399 l 351 399 b 150 486 272 400 201 433 b 150 486 150 486 150 486 b 69 686 100 538 69 608 b 356 972 69 844 197 972 l 754 972 b 1018 797 874 972 975 900 m 357 799 b 243 685 294 799 243 747 b 351 571 243 624 292 574 l 353 571 b 357 571 354 571 356 571 l 756 571 b 760 571 757 571 758 571 l 761 571 b 869 685 821 574 869 624 b 756 799 869 747 818 799 l 357 799 "},"\u0000":{"ha":139,"x_min":0,"x_max":0,"o":""},"\n":{"ha":139,"x_min":0,"x_max":0,"o":""},"\r":{"ha":139,"x_min":0,"x_max":0,"o":""}," ":{"ha":676,"x_min":0,"x_max":0,"o":""},"!":{"ha":313,"x_min":0,"x_max":0,"o":"m 69 -10 l 69 164 l 243 164 l 243 -10 m 243 963 l 243 729 l 197 235 l 115 235 l 69 729 l 69 963 "},"\"":{"ha":533,"x_min":0,"x_max":0,"o":"m 290 700 l 290 1042 l 464 1042 l 464 700 m 68 700 l 68 1042 l 242 1042 l 242 700 "},"#":{"ha":1115,"x_min":0,"x_max":0,"o":"m 786 386 l 785 381 l 976 381 l 943 213 l 942 207 l 750 207 l 750 207 l 707 -11 l 531 -11 l 531 -11 l 531 -11 l 574 207 l 438 207 l 438 207 l 394 -11 l 218 -11 l 218 -11 l 218 -11 l 228 36 l 244 125 l 261 207 l 71 207 l 79 249 l 101 365 l 106 382 l 106 382 l 296 382 l 296 382 l 297 390 l 333 569 l 333 569 l 333 569 l 143 569 l 178 742 l 178 743 l 178 743 l 178 743 l 368 743 l 368 743 l 368 743 l 368 743 l 368 743 l 411 961 l 411 961 l 588 961 l 544 743 l 681 743 l 681 743 l 724 961 l 899 961 l 856 743 l 1047 743 l 1013 569 l 821 569 l 821 569 m 647 571 l 647 571 l 511 571 l 511 571 l 475 388 l 474 382 l 608 382 l 610 388 l 646 569 "},"$":{"ha":1058,"x_min":0,"x_max":0,"o":"m 815 640 l 815 646 b 726 735 815 694 775 735 l 617 735 l 617 551 l 682 551 b 690 551 685 551 688 551 l 726 551 b 908 478 797 551 861 524 b 942 436 921 465 932 451 b 988 288 971 394 988 343 l 988 282 b 726 19 988 138 871 19 l 615 19 l 615 -156 l 442 -156 l 442 19 l 332 19 b 69 282 188 19 69 138 l 69 288 l 243 288 l 243 282 b 332 193 243 233 283 193 l 442 193 l 442 376 l 376 376 b 368 376 374 376 371 376 l 332 376 b 150 450 261 376 197 404 b 117 492 138 463 126 476 b 71 640 88 533 71 585 l 71 646 b 332 908 71 790 188 908 l 443 908 l 443 1096 l 617 1096 l 617 908 l 726 908 b 989 646 871 908 989 790 l 989 640 m 442 735 l 331 735 b 242 646 282 735 242 694 l 242 640 b 331 551 242 592 282 551 l 442 551 m 615 378 l 615 194 l 726 194 b 815 283 775 194 815 235 l 815 289 b 726 378 815 338 775 378 "},"%":{"ha":1289,"x_min":0,"x_max":0,"o":"m 990 951 l 479 -21 l 283 -21 l 794 951 m 971 472 b 1217 226 1107 472 1217 363 b 971 -19 1217 90 1107 -19 b 725 226 835 -19 725 90 b 971 472 725 363 835 472 m 971 153 b 1044 226 1011 153 1044 186 b 971 300 1044 267 1011 300 b 897 226 931 300 897 267 b 971 153 897 186 931 153 m 561 706 b 315 460 561 569 451 460 b 69 706 179 460 69 569 b 315 951 69 842 179 951 b 561 706 451 951 561 842 m 242 706 b 315 632 242 665 275 632 b 389 706 356 632 389 665 b 315 779 389 746 356 779 b 242 706 275 779 242 746 "},"&":{"ha":1099,"x_min":0,"x_max":0,"o":"m 1031 578 l 1031 403 l 857 403 l 857 4 l 356 4 b 71 289 199 4 71 132 b 151 489 71 367 101 438 b 71 689 101 540 71 611 b 356 974 71 846 199 974 l 857 974 l 857 800 l 356 800 b 243 688 294 800 243 749 b 356 574 243 625 294 574 m 685 404 l 357 404 b 244 290 296 404 244 353 b 357 178 244 229 296 178 l 685 178 "},"'":{"ha":313,"x_min":0,"x_max":0,"o":"m 69 697 l 69 1042 l 243 1042 l 243 697 "},"(":{"ha":556,"x_min":0,"x_max":0,"o":"m 485 1031 b 486 -224 361 893 6 406 l 274 -224 b 269 1031 -89 333 110 796 l 486 1031 "},")":{"ha":556,"x_min":0,"x_max":0,"o":"m 285 1031 b 281 -224 444 796 643 333 l 68 -224 b 69 1031 549 406 193 893 l 286 1031 "},"*":{"ha":538,"x_min":0,"x_max":0,"o":"m 322 818 b 418 706 354 781 386 743 b 343 651 393 688 368 669 b 268 781 318 694 293 738 b 193 651 243 738 218 694 b 118 706 168 669 143 688 b 214 818 150 743 182 781 b 68 851 165 829 117 840 b 97 943 78 882 88 913 b 235 885 143 924 189 904 l 235 885 b 222 1031 231 933 226 982 b 318 1031 254 1031 286 1031 b 303 885 313 982 307 933 b 440 943 349 904 394 924 b 469 851 450 913 460 882 b 324 818 421 840 372 829 "},"+":{"ha":797,"x_min":0,"x_max":0,"o":"m 729 546 l 729 372 l 486 372 l 486 129 l 313 129 l 313 372 l 69 372 l 69 546 l 313 546 l 313 789 l 486 789 l 486 546 "},",":{"ha":313,"x_min":0,"x_max":0,"o":"m 242 164 l 242 -183 l 156 -183 l 69 -10 l 69 -10 l 69 164 "},"-":{"ha":797,"x_min":0,"x_max":0,"o":"m 69 372 l 69 546 l 728 546 l 728 372 "},".":{"ha":313,"x_min":0,"x_max":0,"o":"m 69 -10 l 69 164 l 243 164 l 243 -10 "},"/":{"ha":594,"x_min":0,"x_max":0,"o":"m 525 951 l 425 597 l 376 424 l 250 -21 l 69 -21 l 196 424 l 244 597 l 344 951 "},":":{"ha":313,"x_min":0,"x_max":0,"o":"m 69 -10 l 69 164 l 243 164 l 243 -10 m 69 521 l 69 694 l 243 694 l 243 521 "},";":{"ha":313,"x_min":0,"x_max":0,"o":"m 68 164 l 242 164 l 242 -183 l 156 -183 l 69 -10 l 69 -10 m 68 521 l 68 694 l 242 694 l 242 521 "},"<":{"ha":797,"x_min":0,"x_max":0,"o":"m 486 521 l 329 465 l 486 410 l 575 378 l 729 324 l 729 139 l 486 225 l 313 286 l 69 372 l 69 557 l 313 643 l 486 704 l 729 790 l 729 606 l 575 551 "},"=":{"ha":797,"x_min":0,"x_max":0,"o":"m 69 510 l 69 683 l 728 683 l 728 510 m 69 217 l 69 390 l 728 390 l 728 217 "},">":{"ha":797,"x_min":0,"x_max":0,"o":"m 729 554 l 729 369 l 486 283 l 313 222 l 69 136 l 69 321 l 224 375 l 313 407 l 469 463 l 313 518 l 224 550 l 69 604 l 69 789 l 313 703 l 486 642 "},"?":{"ha":1058,"x_min":0,"x_max":0,"o":"m 442 -10 l 442 164 l 615 164 l 615 -10 m 956 792 b 988 654 976 750 988 703 b 678 344 988 483 849 344 l 615 344 l 615 236 l 442 236 l 442 517 l 678 517 b 814 653 753 517 814 578 b 678 789 814 728 753 789 l 379 789 b 243 653 304 789 243 728 l 69 653 b 101 789 69 701 81 747 b 379 963 151 892 257 963 l 678 963 b 956 789 800 963 906 892 "},"@":{"ha":1111,"x_min":0,"x_max":0,"o":"m 1040 964 l 1040 339 l 556 339 l 556 339 b 556 339 556 339 556 339 b 417 478 479 339 417 401 b 556 617 417 554 479 617 b 556 617 556 617 556 617 l 556 617 l 694 617 l 694 511 l 868 511 l 868 789 l 556 789 b 243 476 383 789 243 649 b 556 164 243 304 383 164 l 1042 164 l 1042 -10 l 556 -10 b 69 476 288 -10 69 208 b 556 963 69 744 288 963 "},"A":{"ha":1021,"x_min":0,"x_max":0,"o":"m 1007 0 l 813 0 l 724 174 l 511 590 l 299 174 l 210 0 l 15 0 l 104 174 l 511 972 l 918 174 "},"B":{"ha":1076,"x_min":0,"x_max":0,"o":"m 903 568 b 1042 310 986 513 1042 418 b 732 0 1042 139 903 0 l 69 0 l 69 0 l 69 0 l 69 972 l 682 972 b 944 710 826 972 944 854 b 903 568 944 657 929 608 m 243 621 l 683 621 b 772 710 732 621 772 661 b 683 799 772 758 732 799 l 243 799 m 732 175 b 868 311 807 175 868 236 b 732 447 868 386 807 447 l 243 447 l 243 174 l 732 174 "},"C":{"ha":1097,"x_min":0,"x_max":0,"o":"m 542 799 b 229 486 369 799 229 658 b 542 174 229 314 369 174 l 1028 174 l 1028 0 l 542 0 b 56 486 274 0 56 218 b 542 972 56 754 274 972 l 1028 972 l 1028 799 l 542 799 "},"D":{"ha":1111,"x_min":0,"x_max":0,"o":"m 554 971 b 1040 486 822 971 1040 754 b 925 172 1040 367 997 257 b 897 143 917 163 907 153 b 556 0 810 54 689 0 l 69 0 l 69 972 m 242 172 l 554 172 b 867 485 726 172 867 313 b 554 797 867 657 726 797 l 242 797 "},"E":{"ha":1111,"x_min":0,"x_max":0,"o":"m 332 799 b 243 710 283 799 243 758 l 243 619 l 868 619 l 868 446 l 243 446 l 243 263 b 332 174 243 214 283 174 l 1042 174 l 1042 0 l 332 0 b 71 263 188 0 71 118 l 71 710 b 332 972 71 854 188 972 l 1042 972 l 1042 799 l 332 799 "},"F":{"ha":1111,"x_min":0,"x_max":0,"o":"m 1043 972 l 1043 799 l 333 799 b 244 710 285 799 244 758 l 244 619 l 869 619 l 869 446 l 243 446 l 243 0 l 71 0 l 71 710 b 332 972 71 854 188 972 "},"G":{"ha":1111,"x_min":0,"x_max":0,"o":"m 556 799 b 243 486 383 799 243 658 b 556 174 243 314 383 174 l 868 174 l 868 360 l 556 360 l 556 533 l 1042 533 l 1042 0 l 556 0 b 69 486 288 0 69 218 b 556 972 69 754 288 972 l 1042 972 l 1042 799 l 556 799 "},"H":{"ha":1111,"x_min":0,"x_max":0,"o":"m 1042 972 l 1042 0 l 868 0 l 868 446 l 243 446 l 243 0 l 69 0 l 69 972 l 243 972 l 243 619 l 868 619 l 868 972 "},"I":{"ha":313,"x_min":0,"x_max":0,"o":"m 69 0 l 69 972 l 243 972 l 243 0 "},"J":{"ha":1111,"x_min":0,"x_max":0,"o":"m 1042 972 l 1042 263 b 779 1 1042 118 924 1 l 332 1 b 69 263 188 1 69 118 l 69 444 l 243 444 l 243 263 b 332 174 243 214 283 174 l 779 174 b 868 263 828 174 868 214 l 868 972 "},"K":{"ha":1111,"x_min":0,"x_max":0,"o":"m 617 582 l 1038 0 l 824 0 l 488 464 l 242 240 l 242 0 l 68 0 l 68 972 l 242 972 l 242 475 l 385 606 l 514 724 l 785 972 l 1042 972 "},"L":{"ha":940,"x_min":0,"x_max":0,"o":"m 871 172 l 871 -1 l 378 -1 b 242 31 329 -1 283 10 b 101 172 181 61 131 111 b 69 308 81 214 69 260 l 69 971 l 243 971 l 243 292 b 361 174 251 231 300 182 "},"M":{"ha":1111,"x_min":0,"x_max":0,"o":"m 1042 972 l 1042 0 l 868 0 l 868 619 l 697 489 l 556 379 l 414 489 l 243 619 l 243 0 l 69 0 l 69 972 l 243 839 l 556 599 l 868 839 "},"N":{"ha":1111,"x_min":0,"x_max":0,"o":"m 1042 971 l 1042 -1 l 868 132 l 243 614 l 243 -1 l 69 -1 l 69 968 l 243 835 l 868 353 l 868 972 "},"O":{"ha":1042,"x_min":0,"x_max":0,"o":"m 521 972 b 1007 486 789 972 1007 754 b 521 0 1007 218 789 0 b 35 486 253 0 35 218 b 521 972 35 754 253 972 m 521 174 b 833 486 693 174 833 314 b 521 799 833 658 693 799 b 208 486 349 799 208 658 b 521 174 208 314 349 174 "},"P":{"ha":1014,"x_min":0,"x_max":0,"o":"m 869 893 b 946 708 917 846 946 781 b 793 469 946 603 883 511 b 718 449 769 458 744 451 b 710 449 715 449 713 449 l 710 447 l 244 447 l 244 0 l 71 0 l 71 972 l 71 972 l 71 972 l 683 972 b 868 896 756 972 821 943 m 721 628 b 774 708 753 642 774 674 b 747 772 774 740 757 763 b 685 797 736 783 715 797 l 244 797 l 244 618 l 685 618 b 721 626 697 618 710 621 "},"Q":{"ha":1111,"x_min":0,"x_max":0,"o":"m 1040 486 b 926 174 1040 367 997 258 l 1040 174 l 1040 0 l 560 0 b 556 0 558 0 557 0 b 69 486 288 0 69 218 b 556 972 69 754 288 972 b 1042 486 824 972 1042 754 m 563 174 b 867 486 731 178 867 317 b 554 799 867 658 726 799 b 242 486 382 799 242 658 b 554 174 242 314 382 174 l 554 174 l 563 174 "},"R":{"ha":1014,"x_min":0,"x_max":0,"o":"m 854 172 l 943 -1 l 749 -1 l 660 172 l 567 354 l 563 363 b 415 446 532 413 478 446 l 242 446 l 242 -1 l 68 -1 l 68 971 l 682 971 b 867 894 754 971 819 942 b 943 708 914 846 943 781 b 790 469 943 603 881 511 b 715 449 767 458 742 451 b 715 449 715 449 715 449 m 682 619 b 718 628 694 619 707 622 b 771 708 750 642 771 674 b 744 772 771 740 754 763 b 682 797 733 783 713 797 l 242 797 l 242 618 "},"S":{"ha":1058,"x_min":0,"x_max":0,"o":"m 815 703 l 815 708 b 726 797 815 757 775 797 l 332 797 b 243 708 283 797 243 757 l 243 703 b 332 614 243 654 283 614 l 682 614 b 908 514 772 614 853 575 b 919 501 913 510 915 506 b 989 307 963 449 989 381 b 682 0 989 138 851 0 l 378 0 b 71 307 208 0 71 138 l 244 307 b 378 174 244 233 304 174 l 682 174 b 817 307 756 174 817 233 b 682 440 817 381 756 440 l 332 440 b 150 514 261 440 197 468 b 117 556 138 526 126 540 b 71 704 88 597 71 649 l 71 710 b 332 972 71 854 188 972 l 726 972 b 989 710 871 972 989 854 l 989 704 "},"T":{"ha":1111,"x_min":0,"x_max":0,"o":"m 1040 971 l 1040 797 l 642 797 l 642 -1 l 468 -1 l 468 797 l 69 797 l 69 971 "},"U":{"ha":1111,"x_min":0,"x_max":0,"o":"m 1042 972 l 1042 486 b 556 0 1042 218 824 0 b 69 486 288 0 69 218 l 69 972 l 243 972 l 243 486 b 556 174 243 314 383 174 b 868 486 728 174 868 314 l 868 972 "},"V":{"ha":1021,"x_min":0,"x_max":0,"o":"m 1006 972 l 917 799 l 510 0 l 103 799 l 14 972 l 208 972 l 297 799 l 510 382 l 722 799 l 811 972 "},"W":{"ha":1358,"x_min":0,"x_max":0,"o":"m 1061 210 l 1061 210 l 999 0 l 999 0 l 999 0 l 871 178 l 871 178 l 678 443 l 486 178 l 358 1 l 358 1 l 358 1 l 296 210 l 69 972 l 250 972 l 425 386 l 425 386 l 425 386 l 572 590 l 600 629 l 679 738 l 758 629 l 786 590 l 933 386 l 1108 972 l 1289 972 "},"X":{"ha":1042,"x_min":0,"x_max":0,"o":"m 35 -1 l 38 -1 l 35 -4 m 1007 -4 l 1006 -1 l 1007 -1 m 1010 971 l 633 483 l 1008 -1 l 789 -1 l 524 342 l 258 -1 l 39 -1 l 413 483 l 36 971 l 256 971 l 522 625 l 789 971 l 1007 971 "},"Y":{"ha":1001,"x_min":0,"x_max":0,"o":"m 986 974 l 986 974 l 610 486 l 610 486 l 589 460 l 589 1 l 415 1 l 415 457 l 392 486 l 392 486 l 15 974 l 235 974 l 501 628 l 768 974 m 14 0 l 17 0 l 14 -3 m 985 0 l 986 0 l 986 -3 "},"Z":{"ha":1111,"x_min":0,"x_max":0,"o":"m 1046 175 l 1046 1 l 294 1 l 293 0 l 74 0 l 75 1 l 208 175 l 447 485 l 557 626 l 690 799 l 72 799 l 72 972 l 824 972 l 824 972 l 1042 972 l 1042 972 l 907 799 l 665 485 l 556 343 l 425 175 "},"[":{"ha":489,"x_min":0,"x_max":0,"o":"m 242 856 l 242 -47 l 419 -47 l 419 -221 l 69 -221 l 69 1029 l 419 1029 l 419 856 "},"\\":{"ha":594,"x_min":0,"x_max":0,"o":"m 525 -21 l 344 -21 l 218 424 l 169 597 l 69 951 l 250 951 l 350 597 l 399 424 "},"]":{"ha":489,"x_min":0,"x_max":0,"o":"m 419 1031 l 419 -219 l 69 -219 l 69 -46 l 247 -46 l 247 857 l 69 857 l 69 1031 "},"_":{"ha":1111,"x_min":0,"x_max":0,"o":"m 69 -254 l 69 -81 l 1042 -81 l 1042 -254 "},"a":{"ha":1019,"x_min":0,"x_max":0,"o":"m 1006 0 l 811 0 l 722 174 l 510 590 l 297 174 l 208 0 l 14 0 l 103 174 l 510 972 l 917 174 "},"b":{"ha":1076,"x_min":0,"x_max":0,"o":"m 903 568 b 1042 310 986 513 1042 418 b 732 0 1042 139 903 0 l 69 0 l 69 0 l 69 0 l 69 972 l 682 972 b 944 710 826 972 944 854 b 903 568 944 657 929 608 m 243 621 l 683 621 b 772 710 732 621 772 661 b 683 799 772 758 732 799 l 243 799 m 732 175 b 868 311 807 175 868 236 b 732 447 868 386 807 447 l 243 447 l 243 174 l 732 174 "},"c":{"ha":1097,"x_min":0,"x_max":0,"o":"m 542 799 b 229 486 369 799 229 658 b 542 174 229 314 369 174 l 1028 174 l 1028 0 l 542 0 b 56 486 274 0 56 218 b 542 972 56 754 274 972 l 1028 972 l 1028 799 l 542 799 "},"d":{"ha":1111,"x_min":0,"x_max":0,"o":"m 554 971 b 1040 486 822 971 1040 754 b 925 172 1040 367 997 257 b 897 143 917 163 907 153 b 556 0 810 54 689 0 l 69 0 l 69 972 l 556 972 m 554 172 b 867 485 726 172 867 313 b 554 797 867 657 726 797 l 242 797 l 242 172 l 554 172 "},"e":{"ha":1111,"x_min":0,"x_max":0,"o":"m 332 799 b 243 710 283 799 243 758 l 243 619 l 868 619 l 868 446 l 243 446 l 243 263 b 332 174 243 214 283 174 l 1042 174 l 1042 0 l 332 0 b 71 263 188 0 71 118 l 71 710 b 332 972 71 854 188 972 l 1042 972 l 1042 799 l 332 799 "},"f":{"ha":1111,"x_min":0,"x_max":0,"o":"m 1043 974 l 1043 800 l 333 800 b 244 711 285 800 244 760 l 244 621 l 869 621 l 869 447 l 243 447 l 243 1 l 71 1 l 71 710 b 332 972 71 854 188 972 "},"g":{"ha":1111,"x_min":0,"x_max":0,"o":"m 556 799 b 243 486 383 799 243 658 b 556 174 243 314 383 174 l 868 174 l 868 360 l 556 360 l 556 533 l 1042 533 l 1042 0 l 556 0 b 69 486 288 0 69 218 b 556 972 69 754 288 972 l 1042 972 l 1042 799 l 556 799 "},"h":{"ha":1111,"x_min":0,"x_max":0,"o":"m 1042 972 l 1042 0 l 868 0 l 868 446 l 243 446 l 243 0 l 69 0 l 69 972 l 243 972 l 243 619 l 868 619 l 868 972 "},"i":{"ha":313,"x_min":0,"x_max":0,"o":"m 69 0 l 69 972 l 243 972 l 243 0 "},"j":{"ha":1111,"x_min":0,"x_max":0,"o":"m 1042 972 l 1042 263 b 779 1 1042 118 924 1 l 332 1 b 69 263 188 1 69 118 l 69 444 l 243 444 l 243 263 b 332 174 243 214 283 174 l 779 174 b 868 263 828 174 868 214 l 868 972 "},"k":{"ha":1111,"x_min":0,"x_max":0,"o":"m 617 582 l 1038 0 l 824 0 l 488 464 l 242 240 l 242 0 l 68 0 l 68 972 l 242 972 l 242 475 l 385 606 l 514 724 l 785 972 l 1042 972 "},"l":{"ha":940,"x_min":0,"x_max":0,"o":"m 871 172 l 871 -1 l 378 -1 b 242 31 329 -1 283 10 b 101 172 181 61 131 111 b 69 308 81 214 69 260 l 69 971 l 243 971 l 243 292 b 361 174 251 231 300 182 "},"m":{"ha":1111,"x_min":0,"x_max":0,"o":"m 1042 972 l 1042 0 l 868 0 l 868 619 l 697 489 l 556 379 l 414 489 l 243 619 l 243 0 l 69 0 l 69 972 l 243 839 l 556 599 l 868 839 "},"n":{"ha":1111,"x_min":0,"x_max":0,"o":"m 1042 971 l 1042 -1 l 868 132 l 243 614 l 243 -1 l 69 -1 l 69 968 l 243 835 l 868 353 l 868 972 "},"o":{"ha":1044,"x_min":0,"x_max":0,"o":"m 522 972 b 1008 486 790 972 1008 754 b 522 0 1008 218 790 0 b 36 486 254 0 36 218 b 522 972 36 754 254 972 m 522 174 b 835 486 694 174 835 314 b 522 799 835 658 694 799 b 210 486 350 799 210 658 b 522 174 210 314 350 174 "},"p":{"ha":1014,"x_min":0,"x_max":0,"o":"m 869 894 b 946 708 917 846 946 781 b 793 469 946 603 883 511 b 718 449 769 458 744 451 b 710 449 715 449 713 449 l 710 447 l 244 447 l 244 0 l 71 0 l 71 972 l 71 972 l 71 972 l 683 972 b 868 896 756 972 821 943 m 721 629 b 774 710 753 643 774 675 b 747 774 774 742 757 764 b 685 799 736 785 715 799 l 244 799 l 244 619 l 685 619 b 721 628 697 619 710 622 "},"q":{"ha":1111,"x_min":0,"x_max":0,"o":"m 1040 486 b 926 174 1040 367 997 258 l 1040 174 l 1040 0 l 560 0 b 556 0 558 0 557 0 b 69 486 288 0 69 218 b 556 972 69 754 288 972 b 1042 486 824 972 1042 754 m 563 174 b 867 486 731 178 867 317 b 554 799 867 658 726 799 b 242 486 382 799 242 658 b 554 174 242 314 382 174 l 554 174 l 563 174 "},"r":{"ha":1014,"x_min":0,"x_max":0,"o":"m 854 171 l 943 -3 l 749 -3 l 660 171 l 567 353 l 563 361 b 415 444 532 411 478 444 l 242 444 l 242 -3 l 68 -3 l 68 969 l 682 969 b 867 893 754 969 819 940 b 943 708 914 846 943 781 b 790 469 943 603 881 511 b 715 449 767 458 742 451 b 715 449 715 449 715 449 m 682 618 b 718 626 694 618 707 621 b 771 707 750 640 771 672 b 744 771 771 739 754 761 b 682 796 733 782 713 796 l 242 796 l 242 617 "},"s":{"ha":1058,"x_min":0,"x_max":0,"o":"m 815 703 l 815 708 b 726 797 815 757 775 797 l 332 797 b 243 708 283 797 243 757 l 243 703 b 332 614 243 654 283 614 l 682 614 b 908 514 772 614 853 575 b 919 501 913 510 915 506 b 989 307 963 449 989 381 b 682 0 989 138 851 0 l 378 0 b 71 307 208 0 71 138 l 244 307 b 378 174 244 233 304 174 l 682 174 b 817 307 756 174 817 233 b 682 440 817 381 756 440 l 332 440 b 150 514 261 440 197 468 b 117 556 138 526 126 540 b 71 704 88 597 71 649 l 71 710 b 332 972 71 854 188 972 l 726 972 b 989 710 871 972 989 854 l 989 704 "},"t":{"ha":1111,"x_min":0,"x_max":0,"o":"m 1040 971 l 1040 797 l 642 797 l 642 -1 l 468 -1 l 468 797 l 69 797 l 69 971 "},"u":{"ha":1111,"x_min":0,"x_max":0,"o":"m 1042 972 l 1042 486 b 556 0 1042 218 824 0 b 69 486 288 0 69 218 l 69 972 l 243 972 l 243 486 b 556 174 243 314 383 174 b 868 486 728 174 868 314 l 868 972 "},"v":{"ha":1019,"x_min":0,"x_max":0,"o":"m 1004 972 l 915 799 l 508 0 l 101 799 l 13 972 l 207 972 l 296 799 l 508 382 l 721 799 l 810 972 "},"w":{"ha":1358,"x_min":0,"x_max":0,"o":"m 1061 210 l 1061 210 l 999 0 l 999 0 l 999 0 l 871 178 l 871 178 l 678 443 l 486 178 l 358 1 l 358 1 l 358 1 l 296 210 l 69 972 l 250 972 l 425 386 l 425 386 l 425 386 l 572 590 l 600 629 l 679 738 l 758 629 l 786 590 l 933 386 l 1108 972 l 1289 972 "},"x":{"ha":1042,"x_min":0,"x_max":0,"o":"m 35 -1 l 38 -1 l 35 -4 m 1007 -4 l 1006 -1 l 1007 -1 m 1010 971 l 633 483 l 1008 -1 l 789 -1 l 524 342 l 258 -1 l 39 -1 l 413 483 l 36 971 l 256 971 l 522 625 l 789 971 l 1007 971 "},"y":{"ha":1111,"x_min":0,"x_max":0,"o":"m 1040 974 l 1040 974 l 664 486 l 664 486 l 643 460 l 643 1 l 469 1 l 469 457 l 446 486 l 446 486 l 69 974 l 289 974 l 556 628 l 822 974 m 68 0 l 71 0 l 68 -3 m 1039 0 l 1040 0 l 1040 -3 "},"z":{"ha":1111,"x_min":0,"x_max":0,"o":"m 1046 174 l 1046 0 l 294 0 l 293 -1 l 74 -1 l 75 0 l 208 174 l 447 483 l 557 625 l 690 797 l 72 797 l 72 971 l 824 971 l 824 971 l 1042 971 l 1042 971 l 907 797 l 665 483 l 556 342 l 425 174 "},"{":{"ha":529,"x_min":0,"x_max":0,"o":"m 460 -43 l 460 -217 l 381 -217 b 351 -215 371 -217 361 -217 b 178 -14 253 -201 178 -117 l 178 296 b 149 319 175 310 163 319 l 69 319 l 69 493 l 149 493 b 178 517 163 493 175 503 l 178 826 b 351 1028 178 929 253 1014 b 381 1029 361 1029 371 1029 l 460 1029 l 460 856 l 381 856 b 351 832 367 856 354 846 l 351 521 b 350 492 351 511 351 501 b 315 406 346 460 333 431 b 350 319 333 381 346 351 b 351 290 351 310 351 300 l 351 -21 b 381 -44 354 -35 367 -44 "},"}":{"ha":529,"x_min":0,"x_max":0,"o":"m 460 504 l 460 347 l 460 332 l 381 332 b 351 308 367 332 354 322 l 351 -1 b 178 -203 351 -104 276 -189 b 149 -204 168 -204 158 -204 l 69 -204 l 69 -31 l 149 -31 b 178 -7 163 -31 175 -21 l 178 304 b 179 333 178 314 178 324 b 214 419 183 365 196 394 b 179 506 196 444 183 474 b 178 535 178 515 178 525 l 178 846 b 149 869 175 860 163 869 l 69 869 l 69 1043 l 149 1043 b 178 1042 158 1043 168 1043 b 351 840 276 1028 351 943 l 351 531 b 381 507 354 517 367 507 "},"~":{"ha":821,"x_min":0,"x_max":0,"o":"m 457 522 b 749 579 578 465 626 500 l 749 408 b 408 361 657 333 554 306 b 408 361 408 361 408 361 l 408 361 b 360 382 393 367 376 374 b 247 410 314 403 279 411 b 69 325 193 407 146 375 l 69 325 b 69 325 69 325 69 325 l 69 496 b 263 572 128 543 189 571 b 411 543 307 574 356 564 b 411 543 411 543 411 543 l 411 543 b 460 522 426 538 443 531 "}," ":{"ha":676,"x_min":0,"x_max":0,"o":""},"£":{"ha":1046,"x_min":0,"x_max":0,"o":"m 803 564 l 803 688 b 714 776 803 736 763 776 l 508 776 b 419 688 460 776 419 736 l 419 564 l 732 564 l 732 390 l 419 390 l 419 151 l 978 151 l 978 -22 l 246 -22 l 246 390 l 71 390 l 71 564 l 246 564 l 246 688 b 261 776 246 718 251 749 b 508 950 297 878 394 950 l 714 950 b 961 776 828 950 925 878 b 976 688 971 749 976 718 l 976 564 "},"­":{"ha":139,"x_min":0,"x_max":0,"o":""},"×":{"ha":728,"x_min":0,"x_max":0,"o":"m 485 458 l 657 286 l 535 164 l 364 336 l 192 164 l 69 286 l 242 458 l 69 631 l 192 753 l 364 581 l 536 753 l 658 631 "},"÷":{"ha":797,"x_min":0,"x_max":0,"o":"m 69 372 l 69 546 l 728 546 l 728 372 m 313 615 l 313 789 l 486 789 l 486 615 m 313 131 l 313 304 l 486 304 l 486 131 "},"‘":{"ha":313,"x_min":0,"x_max":0,"o":"m 244 868 l 244 694 l 71 694 l 71 1042 l 157 1042 l 243 868 "},"’":{"ha":313,"x_min":0,"x_max":0,"o":"m 242 1042 l 242 694 l 156 694 l 69 868 l 69 868 l 69 1042 "},"“":{"ha":533,"x_min":0,"x_max":0,"o":"m 465 867 l 465 693 l 292 693 l 292 1040 l 378 1040 l 464 867 m 244 867 l 244 867 l 244 693 l 71 693 l 71 1040 l 157 1040 "},"”":{"ha":533,"x_min":0,"x_max":0,"o":"m 68 1040 l 242 1040 l 242 693 l 156 693 l 69 867 l 69 867 m 463 1040 l 463 693 l 376 693 l 290 867 l 290 867 l 290 1040 "},"€":{"ha":1069,"x_min":0,"x_max":0,"o":"m 692 778 b 472 689 607 778 529 744 l 833 689 l 833 515 l 383 515 b 383 515 383 515 383 515 b 379 465 381 499 379 482 b 381 428 379 453 379 440 l 833 428 l 833 254 l 461 254 b 461 254 461 254 461 254 b 692 151 518 192 600 151 l 1000 151 l 1000 -22 l 692 -22 b 254 254 499 -22 332 90 b 254 254 254 254 254 254 l 71 254 l 71 428 l 207 428 b 207 465 207 440 207 453 b 208 515 207 482 207 499 b 208 515 208 515 208 515 l 71 515 l 71 689 l 261 689 b 692 951 342 844 504 951 l 1000 951 l 1000 778 "}}}
